<svg width="512" height="512" viewBox="0 0 512 512" fill="none" xmlns="http://www.w3.org/2000/svg">
<path d="M324.745 0H196H121V90H196H361C427.167 90 482 144.833 482 211C482 273.373 434.242 324.73 372.235 330.473L350.79 388.847L355.741 418.437C445.712 403.349 512 326.107 512 234.745V187.255C512 84.555 427.445 0 324.745 0Z" fill="#474F54" fill-opacity="0.02"/>
<path d="M482 211C482 273.373 434.242 324.73 372.235 330.473L350.79 388.847L355.741 418.437C445.712 403.349 512 326.107 512 234.745V187.255C512 84.555 427.445 0 324.745 0H196V90H361C427.167 90 482 144.833 482 211Z" fill="#A5A5A5" fill-opacity="0.05"/>
<path d="M196 120C88.599 120 0 208.599 0 316C0 423.401 88.599 512 196 512C303.401 512 391 423.401 391 316C391 208.599 303.401 120 196 120Z" fill="#A5A5A5" fill-opacity="0.05"/>
<path d="M391 316C391 423.401 303.401 512 196 512V120C303.401 120 391 208.599 391 316Z" fill="#FFE6CC" fill-opacity="0.05"/>
<path d="M241 30H301V60H241V30Z" fill="#A5A5A5" fill-opacity="0.05"/>
<path d="M361 60H331V30.348C375.899 32.141 416.038 52.747 443.441 84.741C419.77 69.111 391.425 60 361 60Z" fill="#FF9100" fill-opacity="0.05"/>
<path d="M196 30H151V60H196H211V30H196Z" fill="#FF9100" fill-opacity="0.05"/>
<path d="M196 30H211V60H196V30Z" fill="#FF9100" fill-opacity="0.05"/>
<path d="M106 361C81.186 361 60 340.814 60 316C60 291.186 81.186 271 106 271C130.814 271 151 291.186 151 316C151 340.814 130.814 361 106 361Z" fill="#474F54" fill-opacity="0.02"/>
<path d="M286 361C261.186 361 241 340.814 241 316C241 291.186 261.186 271 286 271C310.814 271 331 291.186 331 316C331 340.814 310.814 361 286 361Z" fill="#A5A5A5" fill-opacity="0.05"/>
<path d="M196 181C171.099 181 151 201.099 151 226C151 250.901 171.099 271 196 271C220.901 271 241 250.901 241 226C241 201.099 220.901 181 196 181Z" fill="#474F54" fill-opacity="0.02"/>
<path d="M196 361C171.099 361 151 381.099 151 406C151 430.901 171.099 451 196 451C220.901 451 241 430.901 241 406C241 381.099 220.901 361 196 361Z" fill="#474F54" fill-opacity="0.02"/>
<path d="M181 301H211V331H181V301Z" fill="#474F54" fill-opacity="0.02"/>
<path d="M241 406C241 430.901 220.901 451 196 451V361C220.901 361 241 381.099 241 406Z" fill="#A5A5A5" fill-opacity="0.05"/>
<path d="M196 271V181C220.901 181 241 201.099 241 226C241 250.901 220.901 271 196 271Z" fill="#A5A5A5" fill-opacity="0.05"/>
<path d="M196 301H211V331H196V301Z" fill="#A5A5A5" fill-opacity="0.05"/>
</svg>
